<?xml version="1.0" encoding="utf-8"?>
<!-- Generator: Adobe Illustrator 16.0.0, SVG Export Plug-In . SVG Version: 6.00 Build 0)  -->
<!DOCTYPE svg PUBLIC "-//W3C//DTD SVG 1.1//EN" "http://www.w3.org/Graphics/SVG/1.1/DTD/svg11.dtd">
<svg version="1.1" id="Layer_1" xmlns="http://www.w3.org/2000/svg" xmlns:xlink="http://www.w3.org/1999/xlink" x="0px" y="0px"
	 width="500px" height="367.333px" viewBox="0 0 500 367.333" enable-background="new 0 0 500 367.333" xml:space="preserve">
<g>
	<path fill="#FFFFFF" d="M163.06,126.019v14.301h-1.733v-6.435h-7.757v6.435h-1.733v-14.301h1.733v6.24h7.757v-6.24H163.06z"/>
	<path fill="#FFFFFF" d="M178.1,138.695v1.625h-10.357v-14.301h10.032v1.625h-8.298v4.615h6.457v1.625h-6.457v4.81H178.1z"/>
	<path fill="#FFFFFF" d="M191.493,138.695v1.625h-9.924v-14.301h1.733v12.676H191.493z"/>
	<path fill="#FFFFFF" d="M204.453,138.695v1.625h-9.923v-14.301h1.733v12.676H204.453z"/>
	<path fill="#FFFFFF" d="M219.384,133.169c0,4.529-2.557,7.367-6.63,7.367c-4.073,0-6.63-2.838-6.63-7.367
		c0-4.528,2.557-7.367,6.63-7.367C216.828,125.803,219.384,128.641,219.384,133.169z M207.944,133.169
		c0,3.597,1.842,5.742,4.81,5.742c2.969,0,4.811-2.146,4.811-5.742s-1.842-5.742-4.811-5.742
		C209.786,127.428,207.944,129.573,207.944,133.169z"/>
	<path fill="#FFFFFF" d="M234.882,140.32h-2.145l-4.225-14.301h1.863l3.445,12.936l3.38-12.936h1.972l3.38,12.979l3.467-12.979
		h1.755l-4.204,14.301h-2.145l-2.535-9.273l-0.737-3.229h-0.021l-0.737,3.229L234.882,140.32z"/>
	<path fill="#FFFFFF" d="M263.119,133.169c0,4.529-2.558,7.367-6.631,7.367s-6.63-2.838-6.63-7.367c0-4.528,2.557-7.367,6.63-7.367
		S263.119,128.641,263.119,133.169z M251.678,133.169c0,3.597,1.842,5.742,4.811,5.742s4.811-2.146,4.811-5.742
		s-1.842-5.742-4.811-5.742S251.678,129.573,251.678,133.169z"/>
	<path fill="#FFFFFF" d="M272.093,134.383h-3.424v5.937h-1.733v-14.301h5.417c2.903,0,4.832,1.604,4.832,4.182
		c0,2.037-1.214,3.467-3.163,3.987l4.029,6.132h-2.058L272.093,134.383z M268.669,132.758h3.662c2.037,0,3.033-0.845,3.033-2.557
		c0-1.712-0.996-2.557-3.033-2.557h-3.662V132.758z"/>
	<path fill="#FFFFFF" d="M291.271,138.695v1.625h-9.924v-14.301h1.733v12.676H291.271z"/>
	<path fill="#FFFFFF" d="M306.115,133.169c0,4.594-2.708,7.15-7.193,7.15h-4.615v-14.301h4.615
		C303.407,126.019,306.115,128.576,306.115,133.169z M304.296,133.169c0-3.467-1.929-5.525-5.2-5.525h-3.056v11.05h3.056
		C302.367,138.695,304.296,136.636,304.296,133.169z"/>
	<path fill="#FFFFFF" d="M311.406,139.821c0,1.452-0.715,2.882-2.361,3.662l-0.91-0.845c1.17-0.39,1.928-1.3,2.123-2.21
		l-0.087-0.043c-0.108,0.087-0.26,0.152-0.606,0.152c-0.52,0-1.191-0.434-1.191-1.365c0-0.78,0.628-1.452,1.408-1.452
		C310.8,137.72,311.406,138.586,311.406,139.821z"/>
	<path fill="#FFFFFF" d="M324.127,140.32h-1.733v-14.301h1.733V140.32z"/>
	<path fill="#FFFFFF" d="M330.933,127.254c0,1.452-0.716,2.882-2.362,3.662l-0.91-0.845c1.17-0.39,1.929-1.3,2.124-2.21
		l-0.087-0.043c-0.108,0.086-0.26,0.151-0.606,0.151c-0.521,0-1.192-0.433-1.192-1.365c0-0.78,0.629-1.452,1.409-1.452
		C330.325,125.153,330.933,126.019,330.933,127.254z"/>
	<path fill="#FFFFFF" d="M348.158,140.32h-1.646v-8.992l0.194-3.77h-0.021l-4.702,12.762h-1.473l-4.702-12.762h-0.021l0.194,3.77
		v8.992h-1.646v-14.301h2.665l3.142,8.689l1.084,3.575h0.043l1.105-3.554l3.12-8.71h2.665V140.32z"/>
</g>
<g>
	<path fill="#FFFFFF" d="M104.757,234.333h-1.616V221h1.616V234.333z"/>
	<path fill="#FFFFFF" d="M111.1,222.151c0,1.354-0.667,2.687-2.202,3.414l-0.848-0.788c1.091-0.364,1.798-1.212,1.979-2.061
		l-0.081-0.04c-0.101,0.081-0.243,0.141-0.566,0.141c-0.485,0-1.111-0.404-1.111-1.272c0-0.728,0.586-1.354,1.313-1.354
		C110.535,220.192,111.1,221,111.1,222.151z"/>
	<path fill="#FFFFFF" d="M127.162,234.333h-1.536v-8.384l0.182-3.515h-0.021l-4.384,11.899h-1.374l-4.384-11.899h-0.02l0.182,3.515
		v8.384h-1.535V221h2.485l2.929,8.102l1.01,3.334h0.041l1.03-3.314l2.909-8.122h2.485V234.333z"/>
	<path fill="#FFFFFF" d="M145.103,230.636h-6.041l-1.414,3.697h-1.697L141.143,221h1.919l5.172,13.334h-1.717L145.103,230.636z
		 M144.517,229.121l-1.798-4.727l-0.626-1.859h-0.041l-0.586,1.798l-1.818,4.788H144.517z"/>
	<path fill="#FFFFFF" d="M158.639,222.515v4.303h6.021v1.516h-6.021v6h-1.616V221h9.334v1.516H158.639z"/>
	<path fill="#FFFFFF" d="M174.155,228.798h-3.192v5.536h-1.616V221h5.05c2.708,0,4.505,1.495,4.505,3.899
		c0,1.899-1.131,3.232-2.95,3.717l3.758,5.717h-1.919L174.155,228.798z M170.963,227.283h3.414c1.899,0,2.828-0.788,2.828-2.384
		c0-1.596-0.929-2.384-2.828-2.384h-3.414V227.283z"/>
	<path fill="#FFFFFF" d="M194.217,227.667c0,4.223-2.384,6.869-6.182,6.869c-3.798,0-6.182-2.646-6.182-6.869
		c0-4.222,2.384-6.869,6.182-6.869C191.833,220.798,194.217,223.444,194.217,227.667z M183.55,227.667
		c0,3.354,1.717,5.354,4.485,5.354c2.768,0,4.485-2.001,4.485-5.354s-1.717-5.354-4.485-5.354
		C185.267,222.313,183.55,224.313,183.55,227.667z"/>
	<path fill="#FFFFFF" d="M208.238,234.333h-2l-5.576-8.93l-1.414-2.626h-0.02l0.081,2.141v9.415h-1.536V221h2l5.556,8.89
		l1.434,2.667h0.021l-0.081-2.142V221h1.536V234.333z"/>
	<path fill="#FFFFFF" d="M221.977,222.515h-4.647v11.818h-1.616v-11.818h-4.646V221h10.91V222.515z"/>
	<path fill="#FFFFFF" d="M229.229,229.889h-6.667v-1.677h6.667V229.889z"/>
	<path fill="#FFFFFF" d="M242.887,232.818v1.516h-9.657V221h9.354v1.516h-7.737v4.303h6.02v1.516h-6.02v4.484H242.887z"/>
	<path fill="#FFFFFF" d="M256.585,234.333h-2l-5.576-8.93l-1.414-2.626h-0.021l0.081,2.141v9.415h-1.535V221h2l5.556,8.89
		l1.435,2.667h0.02l-0.08-2.142V221h1.535V234.333z"/>
	<path fill="#FFFFFF" d="M271.96,227.667c0,4.283-2.525,6.667-6.707,6.667h-4.304V221h4.304
		C269.435,221,271.96,223.384,271.96,227.667z M270.263,227.667c0-3.232-1.798-5.151-4.849-5.151h-2.849v10.303h2.849
		C268.465,232.818,270.263,230.899,270.263,227.667z"/>
	<path fill="#FFFFFF" d="M293.415,227.667c0,4.283-2.525,6.667-6.707,6.667h-4.304V221h4.304
		C290.89,221,293.415,223.384,293.415,227.667z M291.718,227.667c0-3.232-1.798-5.151-4.849-5.151h-2.849v10.303h2.849
		C289.92,232.818,291.718,230.899,291.718,227.667z"/>
	<path fill="#FFFFFF" d="M306.629,232.818v1.516h-9.657V221h9.354v1.516h-7.738v4.303h6.021v1.516h-6.021v4.484H306.629z"/>
	<path fill="#FFFFFF" d="M315.154,234.333h-1.838L308.245,221h1.737l3.395,9.213l0.849,2.646l0.849-2.626l3.394-9.233h1.737
		L315.154,234.333z"/>
	<path fill="#FFFFFF" d="M332.61,232.818v1.516h-9.657V221h9.354v1.516h-7.738v4.303h6.021v1.516h-6.021v4.484H332.61z"/>
	<path fill="#FFFFFF" d="M345.096,232.818v1.516h-9.253V221h1.616v11.818H345.096z"/>
	<path fill="#FFFFFF" d="M359.016,227.667c0,4.223-2.384,6.869-6.182,6.869s-6.182-2.646-6.182-6.869
		c0-4.222,2.384-6.869,6.182-6.869S359.016,223.444,359.016,227.667z M348.35,227.667c0,3.354,1.717,5.354,4.484,5.354
		s4.485-2.001,4.485-5.354s-1.718-5.354-4.485-5.354S348.35,224.313,348.35,227.667z"/>
	<path fill="#FFFFFF" d="M371.765,225.061c0,2.505-1.798,4.061-4.485,4.061h-3.091v5.212h-1.616V221h4.707
		C369.967,221,371.765,222.555,371.765,225.061z M370.067,225.061c0-1.657-0.929-2.545-3.03-2.545h-2.849v5.091h2.849
		C369.139,227.606,370.067,226.717,370.067,225.061z"/>
	<path fill="#FFFFFF" d="M384.553,232.818v1.516h-9.657V221h9.354v1.516h-7.738v4.303h6.021v1.516h-6.021v4.484H384.553z"/>
	<path fill="#FFFFFF" d="M392.594,228.798h-3.192v5.536h-1.616V221h5.051c2.707,0,4.505,1.495,4.505,3.899
		c0,1.899-1.131,3.232-2.949,3.717l3.758,5.717h-1.919L392.594,228.798z M389.401,227.283h3.414c1.899,0,2.829-0.788,2.829-2.384
		c0-1.596-0.93-2.384-2.829-2.384h-3.414V227.283z"/>
</g>
<g>
	<path fill="#FFFFFF" d="M304.24,177.939v19.364h-9.886v-16.631c0-4.128-1.686-5.466-4.128-5.466c-2.85,0-5.234,1.919-5.234,6.746
		v15.352h-9.886v-29.076h8.839l0.291,5.641c1.803-4.128,5.351-6.222,9.944-6.222C300.17,167.646,304.24,171.194,304.24,177.939z"/>
	<path fill="#FFFFFF" d="M329.184,195.675c-1.919,1.338-5.176,2.21-8.199,2.21c-6.571,0-10.642-2.559-10.7-9.304v-13.317h-5.001
		v-7.036h5.001v-6.513l9.886-2.733v9.246h8.723v7.036h-8.723v11.688c0,2.792,1.396,3.896,3.838,3.896
		c1.803,0,3.024-0.465,4.188-1.279L329.184,195.675z"/>
	<path fill="#FFFFFF" d="M359.768,182.766c0,9.537-5.641,15.119-15.352,15.119c-9.712,0-15.353-5.583-15.353-15.119
		c0-9.537,5.641-15.12,15.353-15.12C354.127,167.646,359.768,173.229,359.768,182.766z M348.428,164.797l-4.012-5.118l-4.013,5.118
		h-7.095l6.339-10.061h9.536l6.339,10.061H348.428z M338.949,182.766c0,5.699,1.803,8.083,5.467,8.083
		c3.663,0,5.466-2.384,5.466-8.083c0-5.699-1.803-8.083-5.466-8.083C340.752,174.683,338.949,177.067,338.949,182.766z"/>
	<path fill="#FFFFFF" d="M391.688,177.939v19.364h-9.886v-16.631c0-4.128-1.686-5.466-4.128-5.466c-2.85,0-5.234,1.919-5.234,6.746
		v15.352h-9.886v-29.076h8.839l0.291,5.641c1.803-4.128,5.351-6.222,9.944-6.222C387.618,167.646,391.688,171.194,391.688,177.939z"
		/>
	<path fill="#FFFFFF" d="M394.883,160.145c0-3.314,1.744-4.769,5.757-4.769s5.757,1.454,5.757,4.769c0,3.256-1.744,4.71-5.757,4.71
		S394.883,163.401,394.883,160.145z M405.582,197.304h-9.886v-29.076h9.886V197.304z"/>
	<path fill="#FFFFFF" d="M439.017,182.766c0,9.537-5.641,15.119-15.352,15.119c-9.712,0-15.353-5.583-15.353-15.119
		c0-9.537,5.641-15.12,15.353-15.12C433.376,167.646,439.017,173.229,439.017,182.766z M418.198,182.766
		c0,5.699,1.803,8.083,5.467,8.083c3.663,0,5.466-2.384,5.466-8.083c0-5.699-1.803-8.083-5.466-8.083
		C420.001,174.683,418.198,177.067,418.198,182.766z"/>
	<g>
		<polygon fill="#FFFFFF" points="258.566,179.646 259.236,181.835 259.217,181.835 255.686,181.835 235.341,197.293 
			235.337,197.304 245.397,197.304 248.071,188.639 261.33,188.639 263.947,197.304 274.24,197.304 266.065,173.949 		"/>
	</g>
</g>
<g>
	<polygon fill="#FFFFFF" points="71.444,178.872 71.154,167.067 71.27,167.067 80.749,196.491 88.832,196.491 98.311,167.067 
		98.427,167.067 98.136,178.872 98.136,196.491 106.975,196.491 106.975,158.111 93.309,158.111 87.32,177.708 85.11,185.792 
		84.994,185.792 82.842,177.65 76.794,158.111 62.547,158.111 62.547,196.491 71.444,196.491 	"/>
	<path fill="#FFFFFF" d="M121.389,180.267c-8.257,1.628-11.339,4.71-11.339,9.537c0,4.71,3.256,7.269,9.014,7.269
		c5.35,0,8.723-1.687,10.351-4.478c0.873,3.14,3.605,4.478,7.501,4.478c1.454,0,2.792-0.291,3.955-0.931l0.756-5.524
		c-0.523,0.174-1.105,0.232-1.803,0.232c-1.396,0-2.093-0.756-2.093-2.268v-10.583c0-7.501-4.943-11.165-13.898-11.165
		c-7.909,0-12.444,3.431-13.433,8.956l8.025,2.326c0.581-3.373,2.617-4.478,5.408-4.478c2.617,0,4.129,1.687,4.129,4.303v1.047
		L121.389,180.267z M127.96,186.547c0,2.675-2.85,4.129-5.292,4.129c-1.803,0-2.849-0.873-2.849-2.5
		c0-1.628,0.988-2.442,3.431-3.024l4.71-1.105V186.547z"/>
	<path fill="#FFFFFF" d="M152.497,181.837c0-4.594,3.024-6.862,6.513-6.862c1.512,0,2.908,0.407,3.664,0.873l1.047-8.374
		c-0.64-0.349-1.687-0.64-3.14-0.64c-4.536,0-7.385,2.5-8.839,6.804l-0.407-6.222h-8.723v29.076h9.886V181.837z"/>
	<path fill="#FFFFFF" d="M178.604,190.037c-3.489,0-5.757-2.21-5.757-7.967c0-5.699,2.036-8.199,5.757-8.199
		c2.617,0,4.07,1.628,4.478,5.001l9.188-3.024c-0.931-4.71-4.594-9.014-14.015-9.014c-9.653,0-15.294,5.583-15.294,15.12
		c0,9.537,5.524,15.119,15.701,15.119c8.141,0,12.851-3.838,13.666-8.897l-8.897-2.85
		C182.965,188.35,181.395,190.037,178.604,190.037z"/>
	<path fill="#FFFFFF" d="M223.958,181.954c0-9.537-5.641-15.12-15.352-15.12c-9.711,0-15.352,5.583-15.352,15.12
		c0,9.537,5.641,15.119,15.352,15.119C218.317,197.073,223.958,191.49,223.958,181.954z M203.139,181.954
		c0-5.699,1.803-8.083,5.466-8.083s5.466,2.384,5.466,8.083c0,5.699-1.803,8.083-5.466,8.083S203.139,187.652,203.139,181.954z"/>
	<polygon fill="#FFFFFF" points="5.98,367.333 10.048,367.333 179.177,238.833 175.11,238.833 	"/>
	<polygon fill="#FFFFFF" points="489.458,0 333.052,118.833 337.118,118.833 493.524,0 	"/>
	<path fill="#FFFFFF" d="M296.198,146.833l-30.652,23.289l-4.203-12.011h-11.979l-11.658,33.163l-32.489,24.685h4.067l49.644-37.717
		v-0.001l1.268-0.963l6.205-4.714l0,0l33.865-25.73H296.198z M250.759,181.023l2.849-9.246l1.57-5.989h0.116l1.687,6.047
		l1.184,3.896l-6.966,5.292H250.759z"/>
</g>
</svg>
